<?xml version="1.0" encoding="utf-8"?>
<!-- Generator: Adobe Illustrator 22.0.1, SVG Export Plug-In . SVG Version: 6.00 Build 0)  -->
<svg version="1.1" id="Image" xmlns="http://www.w3.org/2000/svg" xmlns:xlink="http://www.w3.org/1999/xlink" x="0px" y="0px"
	 viewBox="0 0 94 94" style="enable-background:new 0 0 94 94;" xml:space="preserve">
<polygon id="Hands" points="77.288,48 76.428,43.955 68.603,45.618 76.087,80.832 84,80.832 84,48 "/>
<circle id="_x31_2" cx="80" cy="30" r="6"/>
<circle id="_x31_1" cx="55" cy="36.699" r="6"/>
<circle id="_x31_0" cx="36.699" cy="55" r="6"/>
<circle id="_x39_" cx="30" cy="80" r="6"/>
<path id="Border" d="M16,80c0-35.375,28.625-64,64-64c2.025,0,4.024,0.105,6,0.288v-8.02C84.02,8.104,82.023,8,80,8
	C40.203,8,8,40.203,8,80c0,2.023,0.104,4.02,0.268,6h8.021C16.105,84.024,16,82.025,16,80z"/>
</svg>
